<svg id="Layer_1" data-name="Layer 1" xmlns="http://www.w3.org/2000/svg" width="1815.11mm" height="918.11mm" viewBox="0 0 5145.2 2602.52"><defs><style>.cls-1,.cls-2{fill:none;}.cls-2{stroke:#231f20;stroke-miterlimit:10;stroke-width:6px;}</style></defs><title>baby_bill_copy</title><rect class="cls-1" width="5145.2" height="2602.52"/><path class="cls-2" d="M421.88,1164.84h-158v-82.9H648.44v82.9H489.7V1837H421.88Z" transform="translate(-0.01 0)"/><path class="cls-2" d="M773.28,1081.94v315.91h251.21V1081.94h67.81v755h-67.81V1483H773.28v354h-67V1082Z" transform="translate(-0.01 0)"/><path class="cls-2" d="M1477.6,1483H1275.7v272.22h225V1837h-292V1082h280.5v81.78H1275.7v238.61h201.9Z" transform="translate(-0.01 0)"/><path class="cls-2" d="M1751.15,1092c29.28-9,75.52-15.68,122.53-15.68,67,0,110.2,16.8,142.56,54.89,27,29.13,43.16,73.94,43.16,133.31,0,72.82-33.14,136.67-87.85,165.8v2.24c49.32,17.92,107.11,77.3,107.11,189.32,0,65-17.72,114.27-43.92,151.24-36.22,48.17-94.79,70.57-179.56,70.57-46.23,0-81.68-4.48-104-9Zm67,309.19H1879c70.9,0,112.51-53.77,112.51-126.59,0-88.5-46.23-123.22-114-123.22-30.82,0-48.55,3.36-59.34,6.72Zm0,361.84c13.1,3.37,32.37,4.49,56.26,4.49,69.35,0,133.32-37,133.32-146.76,0-103.06-60.88-145.63-134.09-145.63h-55.49Z" transform="translate(-0.01 0)"/><path class="cls-2" d="M2252.81,1599.5,2198.87,1837h-69.35L2306,1082h80.91l177.24,755h-71.67L2437,1599.5Zm170.31-76.18L2372.26,1306c-11.56-49.29-19.27-94.1-27-137.79h-1.54c-7.71,44.81-16.19,90.74-26.2,136.67l-50.87,218.45Z" transform="translate(-0.01 0)"/><path class="cls-2" d="M2640.43,1092c29.28-9,75.52-15.68,122.53-15.68,67,0,110.19,16.8,142.55,54.89,27,29.13,43.16,73.94,43.16,133.31,0,72.82-33.14,136.67-87.85,165.8v2.24c49.32,17.92,107.11,77.3,107.11,189.32,0,65-17.72,114.27-43.92,151.24-36.22,48.17-94.79,70.57-179.55,70.57-46.23,0-81.68-4.48-104-9Zm67,309.19h60.87c70.9,0,112.51-53.77,112.51-126.59,0-88.5-46.24-123.22-114-123.22-30.81,0-48.54,3.36-59.33,6.72Zm0,361.84c13.1,3.37,32.37,4.49,56.26,4.49,69.34,0,133.3-37,133.3-146.76,0-103.06-60.87-145.63-134.07-145.63h-55.49Z" transform="translate(-0.01 0)"/><path class="cls-2" d="M3162.12,1837V1516.6L2998,1081.94h76.29l73.21,208.37c20,57.13,35.45,103.06,51.63,155.71h1.54c14.64-49.29,32.37-98.58,52.4-155.71l74.75-208.37h76.29L3230,1515.48V1837Z" transform="translate(-0.01 0)"/><path class="cls-2" d="M3626.78,1092c29.28-9,75.52-15.68,122.53-15.68,67,0,110.19,16.8,142.56,54.89,27,29.13,43.15,73.94,43.15,133.31,0,72.82-33.13,136.67-87.85,165.8v2.24c49.32,17.92,107.12,77.3,107.12,189.32,0,65-17.72,114.27-43.93,151.24-36.21,48.17-94.78,70.57-179.55,70.57-46.24,0-81.68-4.48-104-9Zm67,309.19h60.88c70.9,0,112.51-53.77,112.51-126.59,0-88.5-46.24-123.22-114.05-123.22-30.83,0-48.55,3.36-59.34,6.72Zm0,361.84c13.1,3.37,32.37,4.49,56.26,4.49,69.35,0,133.31-37,133.31-146.76,0-103.06-60.88-145.63-134.08-145.63h-55.45Z" transform="translate(-0.01 0)"/><path class="cls-2" d="M4111.49,1081.94v755h-67v-755Z" transform="translate(-0.01 0)"/><path class="cls-2" d="M4228.62,1081.94h67v673.27h221.94V1837h-289Z" transform="translate(-0.01 0)"/><path class="cls-2" d="M4592.33,1081.94h67v673.27h222V1837h-289Z" transform="translate(-0.01 0)"/></svg>